<?xml version="1.0" encoding="utf-8"?>
<!-- Generator: Adobe Illustrator 24.3.0, SVG Export Plug-In . SVG Version: 6.00 Build 0)  -->
<svg version="1.1" id="Ebene_1" xmlns="http://www.w3.org/2000/svg" xmlns:xlink="http://www.w3.org/1999/xlink" x="0px" y="0px"
	 viewBox="0 0 504 335.5" style="enable-background:new 0 0 504 335.5;" xml:space="preserve">
<path d="M404.5,242.2c-16.7,45.4-75.1,61.8-113,26.5c-17.3,79.7-125.7,92.2-159,14.7c-31.6,13.4-69.8-5.4-76.3-41.2
	c-73-1.4-76.6-107.2-0.9-111.1c-7.7-67.1,64.2-110.7,117.2-64.3c17.3-79.7,125.7-92.2,159-14.7c25.9-11.6,59,1.1,70.9,25.5
	c6-1.3,12.2-2.1,18.5-2.1C536.4,80.7,532,251.5,404.5,242.2L404.5,242.2z"/>
</svg>
